<svg width="183" height="43" viewBox="0 0 183 43" fill="none" xmlns="http://www.w3.org/2000/svg">
<path d="M18.7692 0H23.8204L24.2666 4.30351L24.514 4.64917L26.991 5.24333L29.5667 1.68253C30.1505 1.9574 33.77 3.95922 33.9257 4.15634C34.3052 4.63945 32.1118 7.61997 32.1924 8.45985L34.1245 10.3895L37.9873 8.50983C38.3904 8.50428 40.3934 12.2705 40.7117 12.9119L37.1463 15.4843L37.7413 18.1552L42.2977 18.848C42.0572 24.741 43.7808 23.7526 37.89 24.2398L37.0476 26.7622L37.0977 27.1079L40.6144 29.6303C40.057 30.1634 38.1819 34.0213 37.6926 34.0324L33.8298 32.1527L31.8977 34.0824L33.6811 38.0402L29.3721 40.6612L29.1247 40.6112L26.7964 37.099L24.122 37.6932L23.6759 41.9967L23.4284 42.2438H18.4759L18.0297 37.8417C17.9713 37.6945 15.5054 36.8366 15.0579 37.149C14.8619 37.285 12.7658 40.5348 12.5322 40.5626C6.99587 37.0032 7.74229 39.2966 10.1053 33.7867L8.17319 31.857L4.11162 33.7367L1.58599 29.4332C1.56097 28.9459 4.69264 27.1981 5.15134 26.6637L4.55642 24.0913L0 23.4971V18.4523C4.48692 17.7374 4.43549 19.1159 5.25003 15.2872L1.78337 12.6162C1.73055 12.3788 3.96984 8.514 4.16027 8.36268C4.65789 7.96426 7.48654 9.91472 8.27049 10.0938L10.4 8.0656L8.6166 4.00919C9.21986 3.71767 12.5851 1.60895 12.8269 1.58535C13.4788 1.52149 15.037 4.60613 15.6 5.14615L18.0769 4.55199L18.3244 4.30489L18.7705 0.00138111L18.7692 0Z" fill="black"/>
<path d="M19.5633 8.70518C19.7551 8.69269 20.8407 8.67186 20.9005 8.75516C21.4315 12.6658 20.3904 10.1545 15.8979 12.5645C15.4684 12.7949 14.7317 13.4182 14.3133 13.7514L12.7773 11.9217C13.995 10.2961 17.6201 8.83012 19.5619 8.70657L19.5633 8.70518Z" fill="#E7AC08"/>
<path d="M27.7843 28.4916C28.1387 28.4541 29.1117 30.0034 29.4189 30.3213C27.6258 32.1732 24.0813 33.828 21.4945 33.4865C21.2791 29.487 21.514 32.2815 26.1997 29.6772C26.714 29.3912 27.2964 28.8442 27.7843 28.4902V28.4916Z" fill="#E7AC08"/>
<path d="M20.8476 11.5587C28.6761 11.3366 33.409 20.3684 28.6233 26.646C24.9412 31.4756 17.7716 31.7269 13.8643 27.0416C8.82413 20.9973 12.9858 11.7822 20.8476 11.5587Z" fill="#E7AC08"/>
<path d="M20.7014 16.3219C25.6331 15.8416 28.1935 22.9993 23.1784 25.4425C16.701 28.598 13.055 17.3367 20.6027 16.4204C20.6403 16.4163 20.6681 16.3247 20.7014 16.3219Z" fill="white"/>
<path d="M20.6529 12.7607C22.3792 12.6802 24.6533 13.3396 24.1195 13.552C16.8832 11.3836 14.5438 16.7352 14.0657 17.0642C13.2192 17.6445 14.9052 15.0596 16.5913 14.0462C17.7019 13.3784 19.3602 12.8204 20.6529 12.7607Z" fill="#231F20"/>
<path d="M28.0813 25.3231C28.59 25.2773 27.0499 27.0362 26.4967 27.4999C24.6522 29.045 21.4204 30.0528 19.1172 29.1324C23.0439 29.6822 25.7683 28.4675 28.0813 25.3231Z" fill="#1A1306"/>
<path d="M13.1237 18.9941V23.1491C12.6358 22.0316 12.6358 20.1117 13.1237 18.9941Z" fill="#1A1306"/>
<path d="M29.0742 18.8945C29.4829 19.4234 29.5107 21.696 29.4203 22.3082C29.1243 24.3378 29.2883 20.8158 29.0742 18.8945Z" fill="#160A06"/>
<path d="M52.136 28V14.93H57.2925C58.2838 14.93 59.1283 15.1194 59.8261 15.498C60.5238 15.8724 61.0556 16.3936 61.4215 17.0616C61.7917 17.7253 61.9767 18.4911 61.9767 19.359C61.9767 20.2269 61.7895 20.9928 61.4151 21.6565C61.0407 22.3202 60.4983 22.8371 59.7878 23.2073C59.0815 23.5774 58.2264 23.7625 57.2223 23.7625H53.9356V21.548H56.7756C57.3074 21.548 57.7456 21.4565 58.0902 21.2736C58.4391 21.0864 58.6986 20.829 58.8688 20.5014C59.0432 20.1695 59.1304 19.7887 59.1304 19.359C59.1304 18.925 59.0432 18.5464 58.8688 18.223C58.6986 17.8954 58.4391 17.6423 58.0902 17.4636C57.7413 17.2807 57.2989 17.1892 56.7628 17.1892H54.8993V28H52.136ZM66.2526 28.1851C65.6271 28.1851 65.0698 28.0766 64.5805 27.8596C64.0912 27.6384 63.7041 27.3129 63.419 26.8832C63.1382 26.4492 62.9978 25.9089 62.9978 25.2622C62.9978 24.7176 63.0978 24.2603 63.2978 23.8901C63.4977 23.52 63.77 23.2221 64.1146 22.9967C64.4593 22.7712 64.8507 22.601 65.2889 22.4861C65.7314 22.3712 66.1951 22.2904 66.6801 22.2436C67.2502 22.184 67.7097 22.1287 68.0586 22.0777C68.4075 22.0224 68.6606 21.9415 68.8181 21.8352C68.9755 21.7288 69.0542 21.5714 69.0542 21.3629V21.3246C69.0542 20.9204 68.9265 20.6077 68.6713 20.3865C68.4203 20.1652 68.0629 20.0546 67.5991 20.0546C67.1098 20.0546 66.7206 20.1631 66.4312 20.3801C66.1419 20.5928 65.9505 20.8609 65.8569 21.1842L63.3424 20.98C63.4701 20.3844 63.7211 19.8696 64.0955 19.4356C64.4699 18.9974 64.9528 18.6613 65.5442 18.4273C66.1398 18.189 66.829 18.0699 67.6119 18.0699C68.1565 18.0699 68.6777 18.1337 69.1754 18.2613C69.6775 18.389 70.1221 18.5868 70.5092 18.8548C70.9007 19.1229 71.2091 19.4675 71.4346 19.8887C71.6601 20.3056 71.7728 20.8056 71.7728 21.3884V28H69.1946V26.6407H69.118C68.9606 26.947 68.75 27.2172 68.4862 27.4512C68.2224 27.6809 67.9054 27.8617 67.5353 27.9936C67.1652 28.1213 66.7376 28.1851 66.2526 28.1851ZM67.0311 26.3088C67.4311 26.3088 67.7842 26.2301 68.0905 26.0727C68.3968 25.911 68.6372 25.694 68.8117 25.4217C68.9861 25.1495 69.0733 24.841 69.0733 24.4964V23.4561C68.9882 23.5115 68.8712 23.5625 68.7223 23.6093C68.5777 23.6519 68.4139 23.6923 68.2309 23.7306C68.048 23.7646 67.865 23.7965 67.6821 23.8263C67.4991 23.8518 67.3332 23.8752 67.1843 23.8965C66.8652 23.9433 66.5865 24.0177 66.3483 24.1199C66.11 24.222 65.925 24.3602 65.7931 24.5347C65.6612 24.7049 65.5952 24.9176 65.5952 25.1729C65.5952 25.543 65.7292 25.8259 65.9973 26.0216C66.2696 26.2131 66.6142 26.3088 67.0311 26.3088ZM73.882 28V18.1975H76.5177V19.9078H76.6198C76.7985 19.2994 77.0985 18.84 77.5197 18.5294C77.9409 18.2145 78.4259 18.0571 78.9747 18.0571C79.1109 18.0571 79.2576 18.0656 79.4151 18.0826C79.5725 18.0997 79.7108 18.1231 79.8299 18.1528V20.5652C79.7023 20.5269 79.5257 20.4928 79.3002 20.4631C79.0747 20.4333 78.8684 20.4184 78.6812 20.4184C78.2812 20.4184 77.9238 20.5056 77.609 20.68C77.2984 20.8502 77.0517 21.0885 76.8687 21.3948C76.69 21.7011 76.6007 22.0543 76.6007 22.4542V28H73.882ZM86.9408 18.1975V20.2397H81.0376V18.1975H86.9408ZM82.3778 15.849H85.0965V24.9878C85.0965 25.2388 85.1348 25.4345 85.2114 25.5749C85.2879 25.7111 85.3943 25.8068 85.5305 25.8621C85.6709 25.9174 85.8325 25.9451 86.0155 25.9451C86.1431 25.9451 86.2707 25.9344 86.3984 25.9131C86.526 25.8876 86.6239 25.8685 86.6919 25.8557L87.1195 27.8787C86.9834 27.9213 86.7919 27.9702 86.5452 28.0255C86.2984 28.0851 85.9985 28.1213 85.6453 28.134C84.9901 28.1595 84.4158 28.0723 83.9222 27.8724C83.433 27.6724 83.0522 27.3618 82.7799 26.9406C82.5076 26.5194 82.3736 25.9876 82.3778 25.3452V15.849ZM96.7449 20.9928L94.256 21.1459C94.2135 20.9332 94.122 20.7417 93.9816 20.5716C93.8412 20.3971 93.6561 20.2588 93.4264 20.1567C93.2009 20.0504 92.9307 19.9972 92.6159 19.9972C92.1947 19.9972 91.8394 20.0865 91.5501 20.2652C91.2608 20.4397 91.1161 20.6737 91.1161 20.9672C91.1161 21.2012 91.2097 21.3991 91.3969 21.5607C91.5841 21.7224 91.9054 21.8522 92.3606 21.95L94.1347 22.3074C95.0878 22.5031 95.7983 22.818 96.2663 23.2519C96.7343 23.6859 96.9683 24.256 96.9683 24.9623C96.9683 25.6047 96.7789 26.1684 96.4003 26.6534C96.0259 27.1385 95.5111 27.5171 94.8559 27.7894C94.2049 28.0574 93.454 28.1915 92.6031 28.1915C91.3055 28.1915 90.2716 27.9213 89.5015 27.381C88.7357 26.8364 88.2869 26.0961 88.155 25.1601L90.829 25.0197C90.9098 25.4154 91.1055 25.7174 91.4161 25.9259C91.7267 26.1301 92.1245 26.2322 92.6095 26.2322C93.086 26.2322 93.4689 26.1408 93.7582 25.9578C94.0518 25.7706 94.2007 25.5302 94.2049 25.2367C94.2007 24.9899 94.0965 24.7878 93.8922 24.6304C93.688 24.4687 93.3732 24.3453 92.9477 24.2603L91.2502 23.922C90.2929 23.7306 89.5802 23.3987 89.1122 22.9265C88.6485 22.4542 88.4166 21.8522 88.4166 21.1204C88.4166 20.4907 88.5868 19.9483 88.9272 19.493C89.2718 19.0378 89.7547 18.6868 90.3758 18.44C91.0013 18.1933 91.7331 18.0699 92.5712 18.0699C93.8093 18.0699 94.7836 18.3315 95.4941 18.8548C96.2088 19.3782 96.6258 20.0908 96.7449 20.9928ZM102.891 28V14.93H108.047C109.034 14.93 109.877 15.1066 110.574 15.4597C111.276 15.8086 111.81 16.3042 112.176 16.9467C112.546 17.5849 112.731 18.3358 112.731 19.1995C112.731 20.0674 112.544 20.8141 112.17 21.4395C111.795 22.0606 111.253 22.5372 110.542 22.869C109.836 23.2009 108.981 23.3668 107.977 23.3668H104.524V21.1459H107.53C108.058 21.1459 108.496 21.0736 108.845 20.9289C109.194 20.7843 109.453 20.5673 109.623 20.278C109.798 19.9887 109.885 19.6292 109.885 19.1995C109.885 18.7655 109.798 18.3996 109.623 18.1018C109.453 17.804 109.192 17.5785 108.838 17.4253C108.49 17.2679 108.049 17.1892 107.517 17.1892H105.654V28H102.891ZM109.949 22.0521L113.197 28H110.147L106.969 22.0521H109.949ZM118.942 28.1915C117.934 28.1915 117.066 27.9872 116.339 27.5788C115.615 27.1661 115.058 26.5832 114.667 25.8302C114.275 25.0729 114.08 24.1773 114.08 23.1434C114.08 22.1351 114.275 21.2502 114.667 20.4886C115.058 19.727 115.609 19.1335 116.32 18.7081C117.034 18.2826 117.872 18.0699 118.834 18.0699C119.481 18.0699 120.083 18.1741 120.64 18.3826C121.202 18.5868 121.691 18.8953 122.108 19.308C122.529 19.7206 122.857 20.2397 123.091 20.8651C123.325 21.4863 123.442 22.2138 123.442 23.0477V23.7944H115.164V22.1096H120.883C120.883 21.7182 120.797 21.3714 120.627 21.0693C120.457 20.7673 120.221 20.5311 119.919 20.361C119.621 20.1865 119.274 20.0993 118.879 20.0993C118.466 20.0993 118.1 20.195 117.781 20.3865C117.466 20.5737 117.219 20.8268 117.041 21.1459C116.862 21.4608 116.771 21.8118 116.766 22.1989V23.8008C116.766 24.2858 116.856 24.7049 117.034 25.058C117.217 25.4111 117.475 25.6834 117.807 25.8749C118.138 26.0663 118.532 26.162 118.987 26.162C119.289 26.162 119.566 26.1195 119.817 26.0344C120.068 25.9493 120.283 25.8217 120.461 25.6515C120.64 25.4813 120.776 25.2728 120.87 25.0261L123.384 25.192C123.257 25.7961 122.995 26.3237 122.599 26.7747C122.208 27.2214 121.702 27.5703 121.08 27.8213C120.463 28.0681 119.751 28.1915 118.942 28.1915ZM129.645 28.1915C128.641 28.1915 127.777 27.9787 127.054 27.5533C126.335 27.1236 125.782 26.5279 125.395 25.7664C125.012 25.0048 124.82 24.1284 124.82 23.1371C124.82 22.133 125.014 21.2523 125.401 20.495C125.792 19.7334 126.348 19.1399 127.067 18.7144C127.786 18.2847 128.641 18.0699 129.632 18.0699C130.487 18.0699 131.236 18.2252 131.878 18.5358C132.521 18.8463 133.029 19.2824 133.404 19.844C133.778 20.4056 133.984 21.0651 134.023 21.8224H131.457C131.385 21.3331 131.193 20.9396 130.883 20.6418C130.577 20.3397 130.174 20.1886 129.677 20.1886C129.256 20.1886 128.887 20.3035 128.573 20.5333C128.262 20.7588 128.02 21.0885 127.845 21.5224C127.671 21.9564 127.583 22.4819 127.583 23.0988C127.583 23.7242 127.669 24.256 127.839 24.6942C128.013 25.1324 128.258 25.4664 128.573 25.6962C128.887 25.9259 129.256 26.0408 129.677 26.0408C129.987 26.0408 130.266 25.977 130.513 25.8493C130.764 25.7217 130.97 25.5366 131.132 25.2941C131.298 25.0473 131.406 24.7517 131.457 24.407H134.023C133.98 25.1558 133.776 25.8153 133.41 26.3854C133.048 26.9513 132.549 27.3937 131.91 27.7128C131.272 28.0319 130.517 28.1915 129.645 28.1915ZM137.442 31.6759C137.097 31.6759 136.774 31.6483 136.472 31.593C136.174 31.5419 135.927 31.476 135.731 31.3951L136.344 29.3657C136.663 29.4636 136.95 29.5167 137.206 29.5253C137.465 29.5338 137.689 29.4742 137.876 29.3466C138.067 29.2189 138.223 29.0019 138.342 28.6956L138.501 28.2808L134.985 18.1975H137.844L139.873 25.3962H139.975L142.024 18.1975H144.902L141.092 29.0594C140.909 29.5869 140.66 30.0464 140.346 30.4379C140.035 30.8335 139.641 31.1377 139.165 31.3505C138.688 31.5674 138.114 31.6759 137.442 31.6759ZM150.406 28.1915C149.402 28.1915 148.539 27.9787 147.815 27.5533C147.096 27.1236 146.543 26.5279 146.156 25.7664C145.773 25.0048 145.582 24.1284 145.582 23.1371C145.582 22.133 145.775 21.2523 146.163 20.495C146.554 19.7334 147.109 19.1399 147.828 18.7144C148.547 18.2847 149.402 18.0699 150.394 18.0699C151.249 18.0699 151.998 18.2252 152.64 18.5358C153.283 18.8463 153.791 19.2824 154.165 19.844C154.54 20.4056 154.746 21.0651 154.784 21.8224H152.219C152.147 21.3331 151.955 20.9396 151.645 20.6418C151.338 20.3397 150.936 20.1886 150.438 20.1886C150.017 20.1886 149.649 20.3035 149.334 20.5333C149.024 20.7588 148.781 21.0885 148.607 21.5224C148.432 21.9564 148.345 22.4819 148.345 23.0988C148.345 23.7242 148.43 24.256 148.6 24.6942C148.775 25.1324 149.019 25.4664 149.334 25.6962C149.649 25.9259 150.017 26.0408 150.438 26.0408C150.749 26.0408 151.028 25.977 151.274 25.8493C151.525 25.7217 151.732 25.5366 151.893 25.2941C152.059 25.0473 152.168 24.7517 152.219 24.407H154.784C154.742 25.1558 154.538 25.8153 154.172 26.3854C153.81 26.9513 153.31 27.3937 152.672 27.7128C152.034 28.0319 151.279 28.1915 150.406 28.1915ZM159.244 14.93V28H156.525V14.93H159.244ZM165.889 28.1915C164.88 28.1915 164.013 27.9872 163.285 27.5788C162.562 27.1661 162.004 26.5832 161.613 25.8302C161.222 25.0729 161.026 24.1773 161.026 23.1434C161.026 22.1351 161.222 21.2502 161.613 20.4886C162.004 19.727 162.555 19.1335 163.266 18.7081C163.981 18.2826 164.819 18.0699 165.78 18.0699C166.427 18.0699 167.029 18.1741 167.586 18.3826C168.148 18.5868 168.637 18.8953 169.054 19.308C169.475 19.7206 169.803 20.2397 170.037 20.8651C170.271 21.4863 170.388 22.2138 170.388 23.0477V23.7944H162.111V22.1096H167.829C167.829 21.7182 167.744 21.3714 167.574 21.0693C167.403 20.7673 167.167 20.5311 166.865 20.361C166.567 20.1865 166.221 20.0993 165.825 20.0993C165.412 20.0993 165.046 20.195 164.727 20.3865C164.412 20.5737 164.166 20.8268 163.987 21.1459C163.808 21.4608 163.717 21.8118 163.713 22.1989V23.8008C163.713 24.2858 163.802 24.7049 163.981 25.058C164.164 25.4111 164.421 25.6834 164.753 25.8749C165.085 26.0663 165.478 26.162 165.933 26.162C166.236 26.162 166.512 26.1195 166.763 26.0344C167.014 25.9493 167.229 25.8217 167.408 25.6515C167.586 25.4813 167.722 25.2728 167.816 25.0261L170.331 25.192C170.203 25.7961 169.941 26.3237 169.546 26.7747C169.154 27.2214 168.648 27.5703 168.027 27.8213C167.41 28.0681 166.697 28.1915 165.889 28.1915ZM175.774 28.1595C175.03 28.1595 174.355 27.9681 173.751 27.5852C173.151 27.198 172.675 26.63 172.322 25.8812C171.973 25.1282 171.798 24.2049 171.798 23.1115C171.798 21.9883 171.979 21.0544 172.341 20.3099C172.702 19.5611 173.183 19.0016 173.783 18.6315C174.387 18.2571 175.049 18.0699 175.768 18.0699C176.317 18.0699 176.774 18.1635 177.14 18.3507C177.51 18.5336 177.808 18.7634 178.033 19.0399C178.263 19.3122 178.438 19.5802 178.557 19.844H178.64V14.93H181.352V28H178.672V26.4301H178.557C178.429 26.7024 178.248 26.9725 178.014 27.2406C177.784 27.5043 177.485 27.7235 177.114 27.8979C176.749 28.0723 176.302 28.1595 175.774 28.1595ZM176.636 25.9961C177.074 25.9961 177.444 25.877 177.746 25.6387C178.053 25.3962 178.287 25.058 178.448 24.624C178.614 24.1901 178.697 23.6816 178.697 23.0988C178.697 22.5159 178.616 22.0096 178.455 21.5799C178.293 21.1502 178.059 20.8183 177.753 20.5843C177.446 20.3503 177.074 20.2333 176.636 20.2333C176.189 20.2333 175.813 20.3546 175.506 20.5971C175.2 20.8396 174.968 21.1757 174.811 21.6054C174.653 22.0351 174.574 22.5329 174.574 23.0988C174.574 23.6689 174.653 24.173 174.811 24.6113C174.972 25.0452 175.204 25.3856 175.506 25.6323C175.813 25.8749 176.189 25.9961 176.636 25.9961Z" fill="black"/>
</svg>
