<svg width="213" height="43" viewBox="0 0 213 43" fill="none" xmlns="http://www.w3.org/2000/svg">
<path d="M18.7692 0H23.8204L24.2666 4.30351L24.514 4.64917L26.991 5.24333L29.5667 1.68253C30.1505 1.9574 33.77 3.95922 33.9257 4.15634C34.3052 4.63945 32.1118 7.61997 32.1924 8.45985L34.1245 10.3895L37.9873 8.50983C38.3904 8.50428 40.3934 12.2705 40.7117 12.9119L37.1463 15.4843L37.7413 18.1552L42.2977 18.848C42.0572 24.741 43.7808 23.7526 37.89 24.2398L37.0476 26.7622L37.0977 27.1079L40.6144 29.6303C40.057 30.1634 38.1819 34.0213 37.6926 34.0324L33.8298 32.1527L31.8977 34.0824L33.6811 38.0402L29.3721 40.6612L29.1247 40.6112L26.7964 37.099L24.122 37.6932L23.6759 41.9967L23.4284 42.2438H18.4759L18.0297 37.8417C17.9713 37.6945 15.5054 36.8366 15.0579 37.149C14.8619 37.285 12.7658 40.5348 12.5322 40.5626C6.99587 37.0032 7.74229 39.2966 10.1053 33.7867L8.1732 31.857L4.11162 33.7367L1.58599 29.4332C1.56097 28.9459 4.69264 27.1981 5.15134 26.6637L4.55642 24.0913L0 23.4971V18.4523C4.48692 17.7374 4.43549 19.1159 5.25003 15.2872L1.78337 12.6162C1.73055 12.3788 3.96984 8.514 4.16027 8.36268C4.65789 7.96426 7.48654 9.91472 8.27049 10.0938L10.4 8.0656L8.61661 4.00919C9.21986 3.71767 12.5851 1.60895 12.8269 1.58535C13.4788 1.52149 15.037 4.60613 15.6 5.14615L18.0769 4.55199L18.3244 4.30489L18.7705 0.00138111L18.7692 0Z" fill="black"/>
<path d="M19.5633 8.70518C19.7551 8.69269 20.8407 8.67186 20.9005 8.75516C21.4315 12.6658 20.3904 10.1545 15.8979 12.5645C15.4684 12.7949 14.7317 13.4182 14.3133 13.7514L12.7773 11.9217C13.995 10.2961 17.6201 8.83012 19.5619 8.70657L19.5633 8.70518Z" fill="#FEC11A"/>
<path d="M27.7843 28.4916C28.1387 28.4541 29.1117 30.0034 29.4189 30.3213C27.6258 32.1732 24.0813 33.828 21.4945 33.4865C21.2791 29.487 21.514 32.2815 26.1997 29.6772C26.714 29.3912 27.2964 28.8442 27.7843 28.4902V28.4916Z" fill="#FEC11A"/>
<path d="M20.8476 11.5587C28.6761 11.3366 33.409 20.3684 28.6233 26.646C24.9412 31.4756 17.7716 31.7269 13.8643 27.0416C8.82413 20.9973 12.9858 11.7822 20.8476 11.5587Z" fill="#FEC11A"/>
<path d="M20.7014 16.3219C25.6331 15.8416 28.1935 22.9993 23.1784 25.4425C16.701 28.598 13.055 17.3367 20.6027 16.4204C20.6403 16.4163 20.6681 16.3247 20.7014 16.3219Z" fill="white"/>
<path d="M20.6529 12.7607C22.3792 12.6802 24.6533 13.3396 24.1195 13.552C16.8832 11.3836 14.5438 16.7352 14.0657 17.0642C13.2192 17.6445 14.9052 15.0596 16.5913 14.0462C17.7019 13.3784 19.3602 12.8204 20.6529 12.7607Z" fill="#231F20"/>
<path d="M28.0813 25.3231C28.59 25.2773 27.0499 27.0362 26.4967 27.4999C24.6522 29.045 21.4204 30.0528 19.1172 29.1324C23.0439 29.6822 25.7683 28.4675 28.0813 25.3231Z" fill="#1A1306"/>
<path d="M13.1237 18.9941V23.1491C12.6358 22.0316 12.6358 20.1117 13.1237 18.9941Z" fill="#1A1306"/>
<path d="M29.0742 18.8945C29.4829 19.4234 29.5107 21.696 29.4203 22.3082C29.1243 24.3378 29.2883 20.8158 29.0742 18.8945Z" fill="#160A06"/>
<path d="M56.2835 21.7536C56.2835 22.4365 56.3135 23.1853 56.3734 24H52.4197C51.9285 22.0951 51.6829 20.0703 51.6829 17.9257C51.6829 16.8355 51.7488 15.865 51.8806 15.0144H61.621C61.9684 16.3682 62.1601 17.9796 62.1961 19.8486C60.4229 20.6394 58.4521 21.1546 56.2835 21.3942V21.7536ZM56.3015 20.1542C57.0683 20.0583 57.7093 19.8666 58.2244 19.5791C58.0327 18.3091 57.5176 17.1829 56.6789 16.2005C56.4872 17.3866 56.3614 18.7045 56.3015 20.1542ZM75.3517 23.8562V24H71.1824C71.1345 23.3171 71.0326 22.6102 70.8769 21.8794C70.1341 22.6342 69.2954 23.3411 68.3609 24H64.1736C64.0897 23.5088 64.0478 22.8618 64.0478 22.0591C64.0478 21.2444 64.1676 20.4297 64.4072 19.615C65.2698 19.3634 66.0965 18.9381 66.8873 18.3391C67.69 17.74 68.271 17.0931 68.6305 16.3982C68.307 15.895 67.9655 15.4337 67.6061 15.0144H73.5725C74.7586 17.5903 75.3517 20.5375 75.3517 23.8562ZM70.5534 20.5675C70.2419 19.5012 69.8345 18.4948 69.3313 17.5483C68.7682 19.2017 68.4448 20.7652 68.3609 22.2388C69.2235 21.7955 69.9543 21.2384 70.5534 20.5675ZM86.871 18.1414L86.853 18.7524C85.8945 19.2676 84.6964 19.6689 83.2588 19.9565C84.2891 20.232 85.2835 20.3698 86.242 20.3698H86.6194C87.2783 21.3403 87.7036 22.5503 87.8953 24H83.2408C83.121 23.1613 82.8754 22.4425 82.504 21.8435C82.1445 21.2324 81.7012 20.8191 81.1741 20.6034C81.1621 20.8071 81.1561 21.2145 81.1561 21.8255C81.1561 22.4365 81.1921 23.1613 81.2639 24H77.3462C76.9988 22.2628 76.8251 20.6514 76.8251 19.1657C76.8251 17.6681 76.9089 16.2844 77.0767 15.0144H86.4576C86.7332 16.2245 86.871 17.2668 86.871 18.1414ZM81.5515 16.2185C81.4077 17.2728 81.2999 18.3091 81.228 19.3275C81.8869 19.2316 82.4261 18.998 82.8454 18.6266C82.6178 17.8239 82.1865 17.0212 81.5515 16.2185ZM96.8639 16.1825C96.5524 18.0755 96.3967 19.621 96.3967 20.8191C96.3967 22.0172 96.4446 23.0775 96.5405 24H92.6227C92.2154 22.0951 92.0117 20.0463 92.0117 17.8538C92.0117 17.4824 92.0237 16.9253 92.0477 16.1825C91.0293 16.482 90.4063 17.1709 90.1787 18.2492L88.3995 18.1414L89.0465 15.0144H100.997C100.758 16.3323 100.482 17.4106 100.171 18.2492L98.3556 18.1414C98.4035 17.9497 98.4274 17.758 98.4274 17.5663C98.4274 17.0991 98.2837 16.7516 97.9961 16.524C97.7086 16.2963 97.3312 16.1825 96.8639 16.1825ZM108.654 16.0927C108.175 16.0208 107.66 15.9848 107.109 15.9848C106.57 15.9848 106.043 16.0208 105.527 16.0927C105.851 16.6438 106.234 17.0931 106.678 17.4405C107.121 17.7879 107.678 18.1354 108.349 18.4828C109.032 18.8183 109.583 19.1298 110.002 19.4173C110.434 19.7049 110.907 20.1781 111.422 20.8371C111.937 21.496 112.261 22.1849 112.392 22.9038C111.817 23.6466 111.057 24.2995 110.11 24.8626C109.164 25.4377 108.193 25.8211 107.199 26.0128C106.528 25.9529 105.677 25.7612 104.647 25.4377C103.629 25.1262 102.862 24.9704 102.347 24.9704C101.831 24.9704 101.316 25.1322 100.801 25.4557C101.017 24.8446 101.37 24.0779 101.861 23.1554H102.005C102.772 23.1554 103.491 23.2752 104.162 23.5148C104.845 23.7544 105.462 23.994 106.013 24.2336C106.576 24.4732 107.025 24.5931 107.361 24.5931C107.708 24.5931 107.96 24.5691 108.115 24.5212C108.115 23.7304 107.87 23.0775 107.379 22.5623C107.115 22.2867 106.887 22.0771 106.696 21.9333C106.516 21.7776 106.234 21.5679 105.851 21.3043L105.545 21.0887C104.731 20.5256 104.06 19.9565 103.533 19.3814C103.006 18.7943 102.622 18.0755 102.383 17.2249C102.766 16.3742 103.143 15.6374 103.515 15.0144C104.653 14.7388 105.833 14.6011 107.055 14.6011H107.846C108.876 14.6011 110.056 14.7448 111.386 15.0324C111.194 15.8231 110.961 16.536 110.685 17.1709C109.679 17.2428 108.9 17.2788 108.349 17.2788C108.457 17.0032 108.559 16.6078 108.654 16.0927ZM129.921 18.1414L129.903 18.7524C128.945 19.2676 127.747 19.6689 126.309 19.9565C127.339 20.232 128.334 20.3698 129.292 20.3698H129.67C130.328 21.3403 130.754 22.5503 130.946 24H126.291C126.171 23.1613 125.926 22.4425 125.554 21.8435C125.195 21.2324 124.751 20.8191 124.224 20.6034C124.212 20.8071 124.206 21.2145 124.206 21.8255C124.206 22.4365 124.242 23.1613 124.314 24H120.396C120.049 22.2628 119.875 20.6514 119.875 19.1657C119.875 17.6681 119.959 16.2844 120.127 15.0144H129.508C129.783 16.2245 129.921 17.2668 129.921 18.1414ZM124.602 16.2185C124.458 17.2728 124.35 18.3091 124.278 19.3275C124.937 19.2316 125.476 18.998 125.896 18.6266C125.668 17.8239 125.237 17.0212 124.602 16.2185ZM138.89 18.6266L140.579 18.7344C140.747 18.7344 140.873 18.7284 140.956 18.7165L140.112 20.2979H139.95C139.722 20.2979 139.399 20.238 138.98 20.1182C138.56 19.9864 138.261 19.9205 138.081 19.9205C137.59 19.9205 137.2 20.238 136.913 20.873C136.865 21.4601 136.829 22.0471 136.805 22.6342C137.428 22.754 137.919 22.8139 138.279 22.8139H138.44C138.956 22.8139 139.363 22.7001 139.663 22.4724C139.974 22.2448 140.196 21.8375 140.327 21.2504L142.484 21.3403C142.304 22.3706 142.065 23.2572 141.765 24H132.941C132.702 22.3826 132.582 20.7772 132.582 19.1837C132.582 17.5903 132.666 16.2005 132.833 15.0144H142.466C142.25 16.3083 142.059 17.2189 141.891 17.746C141.184 17.782 140.537 17.8059 139.95 17.8179C140.046 17.5423 140.094 17.2848 140.094 17.0451C140.094 16.4701 139.663 16.1825 138.8 16.1825C138.476 16.1825 138.117 16.2185 137.722 16.2903C137.458 17.4285 137.254 18.4289 137.111 19.2915C137.59 18.8483 138.183 18.6266 138.89 18.6266ZM151.558 16.1106C151.138 16.0388 150.731 16.0028 150.336 16.0028C149.952 16.0028 149.485 16.0687 148.934 16.2005C148.754 16.9553 148.664 17.6921 148.664 18.411C148.664 20.268 149.491 21.6937 151.144 22.6881C152.247 21.9573 153.241 21.0467 154.128 19.9565C154.163 20.4357 154.193 21.1665 154.217 22.149C153.331 22.8439 152.426 23.389 151.504 23.7843C150.581 24.1797 149.431 24.3774 148.053 24.3774H147.64C146.562 23.9101 145.711 23.2212 145.088 22.3107C144.477 21.4002 144.171 20.4417 144.171 19.4353C144.171 18.0935 144.723 16.9553 145.825 16.0208C146.927 15.0743 148.527 14.6011 150.623 14.6011C151.797 14.6011 153.025 14.7508 154.307 15.0503C154.116 15.8051 153.876 16.518 153.588 17.1889C152.834 17.2608 152.055 17.2967 151.252 17.2967C151.372 16.9613 151.474 16.5659 151.558 16.1106ZM166.704 15.3558C166.297 15.4517 165.956 15.4996 165.68 15.4996C165.405 15.4996 165.141 15.4816 164.889 15.4457C164.518 15.889 164.182 16.482 163.883 17.2249C163.583 17.9677 163.356 18.6326 163.2 19.2197C163.056 19.8067 162.895 20.5256 162.715 21.3762C161.804 25.7133 160.894 28.7923 159.983 30.6134C159.384 30.7931 158.641 30.9668 157.755 31.1346C158.953 29.0859 159.923 26.7077 160.666 24H156.946C156 20.9329 155.508 17.9377 155.472 15.0144H160.72C160.468 16.1286 160.343 17.3147 160.343 18.5727C160.343 19.8187 160.546 21.2444 160.954 22.8498C161.038 22.5264 161.181 21.9633 161.385 21.1605C161.589 20.3459 161.738 19.7648 161.834 19.4173C161.93 19.0699 162.074 18.5787 162.266 17.9437C162.469 17.3087 162.649 16.8355 162.805 16.524C162.972 16.2005 163.176 15.8411 163.416 15.4457C163.847 14.7388 164.416 14.2596 165.123 14.008C165.327 13.9481 165.74 13.8882 166.363 13.8283C166.986 13.7564 167.435 13.6306 167.711 13.4509C167.387 14.1937 167.052 14.8287 166.704 15.3558ZM173.039 16.1106C172.62 16.0388 172.212 16.0028 171.817 16.0028C171.433 16.0028 170.966 16.0687 170.415 16.2005C170.235 16.9553 170.145 17.6921 170.145 18.411C170.145 20.268 170.972 21.6937 172.626 22.6881C173.728 21.9573 174.722 21.0467 175.609 19.9565C175.645 20.4357 175.675 21.1665 175.699 22.149C174.812 22.8439 173.907 23.389 172.985 23.7843C172.062 24.1797 170.912 24.3774 169.534 24.3774H169.121C168.043 23.9101 167.192 23.2212 166.569 22.3107C165.958 21.4002 165.653 20.4417 165.653 19.4353C165.653 18.0935 166.204 16.9553 167.306 16.0208C168.408 15.0743 170.008 14.6011 172.104 14.6011C173.278 14.6011 174.507 14.7508 175.788 15.0503C175.597 15.8051 175.357 16.518 175.07 17.1889C174.315 17.2608 173.536 17.2967 172.733 17.2967C172.853 16.9613 172.955 16.5659 173.039 16.1106ZM181.249 22.6162C181.812 22.748 182.351 22.8139 182.866 22.8139C183.381 22.8139 183.789 22.7001 184.088 22.4724C184.4 22.2328 184.627 21.8255 184.771 21.2504L186.928 21.3223C186.748 22.4006 186.508 23.2931 186.209 24H177.385C177.157 22.4665 177.043 20.879 177.043 19.2376C177.043 17.5963 177.127 16.1885 177.295 15.0144H182.471C181.68 18.0455 181.273 20.5795 181.249 22.6162ZM194.594 18.6266L196.283 18.7344C196.451 18.7344 196.576 18.7284 196.66 18.7165L195.816 20.2979H195.654C195.426 20.2979 195.103 20.238 194.683 20.1182C194.264 19.9864 193.965 19.9205 193.785 19.9205C193.294 19.9205 192.904 20.238 192.617 20.873C192.569 21.4601 192.533 22.0471 192.509 22.6342C193.132 22.754 193.623 22.8139 193.982 22.8139H194.144C194.659 22.8139 195.067 22.7001 195.366 22.4724C195.678 22.2448 195.899 21.8375 196.031 21.2504L198.188 21.3403C198.008 22.3706 197.768 23.2572 197.469 24H188.645C188.405 22.3826 188.286 20.7772 188.286 19.1837C188.286 17.5903 188.369 16.2005 188.537 15.0144H198.17C197.954 16.3083 197.762 17.2189 197.595 17.746C196.888 17.782 196.241 17.8059 195.654 17.8179C195.75 17.5423 195.798 17.2848 195.798 17.0451C195.798 16.4701 195.366 16.1825 194.504 16.1825C194.18 16.1825 193.821 16.2185 193.425 16.2903C193.162 17.4285 192.958 18.4289 192.814 19.2915C193.294 18.8483 193.887 18.6266 194.594 18.6266ZM204.853 14.6011C207.166 14.6011 209.047 14.8886 210.496 15.4637C211.011 16.494 211.269 17.5364 211.269 18.5907C211.269 19.9445 210.808 21.1186 209.885 22.113C208.543 23.5387 206.728 24.2516 204.44 24.2516C203.649 24.2516 202.577 24.1617 201.223 23.982C200.756 21.5739 200.522 19.3514 200.522 17.3147C200.522 16.6078 200.558 15.8411 200.63 15.0144C202.559 14.7388 203.967 14.6011 204.853 14.6011ZM205.392 15.9489C205.177 18.2013 205.069 19.8187 205.069 20.8011C205.069 21.7716 205.087 22.5623 205.123 23.1733C205.77 22.8259 206.273 22.2448 206.632 21.4301C207.004 20.6034 207.19 19.7708 207.19 18.9321C207.19 18.0815 207.034 17.3866 206.722 16.8475C206.423 16.3083 205.979 16.0088 205.392 15.9489Z" fill="black"/>
</svg>
